<svg id="svg" xmlns="http://www.w3.org/2000/svg" xmlns:xlink="http://www.w3.org/1999/xlink" width="400" height="292.8" viewBox="0, 0, 400,292.8" version="1.1"><g id="svgg"><path id="path0" d="M188.800 58.119 C 167.675 60.678,150.467 68.706,136.000 82.755 L 131.680 86.950 128.707 87.795 C 99.866 95.988,87.394 116.549,96.779 140.431 L 97.577 142.462 95.210 145.587 C 86.234 157.439,78.348 174.824,79.522 180.170 C 79.663 180.813,79.606 181.120,79.346 181.120 C 78.647 181.120,79.148 191.983,79.979 194.880 C 86.088 216.158,112.554 227.078,148.978 223.347 L 152.515 222.985 158.418 225.881 C 189.937 241.349,227.875 236.940,254.004 214.773 C 256.047 213.040,256.115 213.012,260.679 211.965 C 295.418 203.994,309.122 180.702,295.296 153.129 C 293.788 150.122,293.447 149.182,293.710 148.761 C 293.895 148.466,295.157 146.806,296.515 145.072 C 320.888 113.967,319.447 84.602,292.930 72.004 C 280.627 66.159,260.722 63.842,241.688 66.039 L 236.496 66.639 232.710 65.003 C 219.193 59.164,202.190 56.498,188.800 58.119 M255.591 69.440 C 301.819 72.597,317.955 102.783,293.907 141.120 C 291.333 145.224,290.960 145.645,290.548 144.919 C 290.385 144.633,289.269 143.121,288.068 141.559 L 285.884 138.720 285.498 135.377 C 282.613 110.384,268.127 86.999,246.632 72.636 L 241.905 69.478 243.272 69.355 C 246.071 69.103,251.176 69.139,255.591 69.440 M123.336 97.957 C 118.174 105.825,114.288 114.612,111.835 123.957 L 110.755 128.074 106.817 132.117 C 104.652 134.341,102.788 136.203,102.675 136.255 C 102.188 136.481,101.683 130.541,101.851 126.572 C 102.393 113.782,109.808 102.878,122.803 95.764 C 124.165 95.018,125.368 94.406,125.475 94.404 C 125.582 94.402,124.619 96.001,123.336 97.957 M157.263 111.331 C 166.961 113.489,169.956 117.483,167.735 125.299 C 166.475 129.735,163.678 132.488,158.498 134.389 C 157.124 134.893,156.216 135.374,156.480 135.456 C 156.744 135.539,157.608 135.784,158.400 135.999 C 164.993 137.797,166.719 141.138,164.807 148.407 C 163.251 154.326,160.742 157.352,155.091 160.128 C 147.923 163.650,144.139 164.207,126.190 164.387 C 111.450 164.534,111.420 164.536,111.242 165.216 C 111.144 165.590,111.224 165.996,111.419 166.116 C 111.614 166.237,111.681 166.577,111.568 166.871 C 111.451 167.176,111.578 167.624,111.864 167.910 C 112.171 168.216,112.295 168.696,112.184 169.140 C 112.080 169.551,112.158 169.919,112.363 169.988 C 112.562 170.054,112.742 170.570,112.763 171.133 C 112.783 171.697,112.878 172.159,112.974 172.159 C 113.070 172.160,113.342 173.034,113.579 174.102 C 113.816 175.170,114.193 176.227,114.417 176.451 C 114.641 176.675,115.009 177.493,115.236 178.269 C 115.463 179.045,115.750 179.752,115.873 179.840 C 116.098 180.001,118.452 185.190,119.177 187.125 C 119.393 187.700,119.882 188.559,120.265 189.035 C 120.647 189.510,120.960 190.087,120.960 190.317 C 120.960 190.824,122.981 194.080,125.558 197.726 C 130.914 205.303,137.899 212.362,145.681 218.062 C 148.725 220.292,148.727 220.291,141.428 220.047 C 92.992 218.428,74.047 187.994,97.692 149.784 C 99.785 146.401,99.722 146.410,101.395 149.297 C 102.162 150.621,102.954 151.881,103.155 152.097 C 103.356 152.313,103.790 153.018,104.119 153.664 C 104.448 154.309,105.100 155.295,105.567 155.855 L 106.417 156.872 107.244 153.690 C 107.909 151.131,107.994 150.404,107.682 149.977 C 107.196 149.312,104.435 142.848,104.161 141.734 C 103.983 141.009,109.218 133.712,109.603 134.147 C 109.648 134.198,109.574 135.041,109.438 136.021 C 109.010 139.107,108.710 145.920,109.002 145.919 C 109.155 145.919,110.779 140.123,112.611 133.039 C 114.444 125.956,116.519 117.953,117.222 115.255 L 118.502 110.349 136.291 110.486 C 153.203 110.616,154.237 110.657,157.263 111.331 M223.200 111.167 C 232.792 113.021,238.385 117.068,238.397 122.163 C 238.415 130.193,233.675 136.590,224.934 140.331 C 218.607 143.039,214.088 143.678,201.244 143.679 L 191.767 143.680 190.457 148.720 C 189.736 151.492,188.529 156.171,187.773 159.119 L 186.400 164.477 178.458 164.479 C 171.043 164.480,170.528 164.443,170.687 163.920 C 170.886 163.267,180.354 126.403,182.774 116.857 L 184.423 110.353 202.372 110.482 C 217.739 110.592,220.734 110.691,223.200 111.167 M266.240 110.558 C 266.240 110.646,264.668 116.802,262.747 124.238 C 257.253 145.505,254.720 155.411,254.720 155.634 C 254.720 155.747,262.119 155.840,271.163 155.840 L 287.606 155.840 288.131 155.040 C 288.419 154.600,288.793 154.240,288.961 154.240 C 289.130 154.240,289.358 154.600,289.469 155.040 C 289.594 155.541,289.896 155.840,290.275 155.840 C 290.960 155.840,291.053 156.179,290.514 156.718 C 290.240 156.992,290.314 157.548,290.812 158.942 C 292.571 163.866,292.969 173.418,291.616 178.250 C 288.082 190.880,279.114 200.085,264.698 205.880 L 262.676 206.693 263.978 205.186 C 271.605 196.356,277.659 185.992,280.932 176.160 C 282.793 170.567,284.235 165.180,283.980 164.768 C 283.877 164.602,273.836 164.480,260.170 164.480 L 236.537 164.480 239.392 153.360 C 240.961 147.244,244.076 135.076,246.313 126.320 L 250.380 110.400 258.310 110.400 C 262.672 110.400,266.240 110.471,266.240 110.558 M130.446 124.880 C 129.624 128.092,128.954 130.900,128.956 131.120 C 128.959 131.427,130.433 131.517,135.280 131.509 C 146.505 131.489,149.830 130.272,151.192 125.687 C 152.739 120.476,149.868 119.060,137.730 119.046 L 131.940 119.040 130.446 124.880 M197.960 119.589 C 197.438 121.339,194.240 134.020,194.240 134.340 C 194.240 134.926,209.723 134.852,212.553 134.253 C 217.939 133.111,220.008 131.342,221.166 126.886 C 222.245 122.729,221.489 121.271,217.711 120.223 C 213.898 119.164,198.236 118.662,197.960 119.589 M126.545 140.504 C 126.364 140.797,122.560 155.370,122.560 155.771 C 122.560 156.196,138.532 155.567,140.320 155.072 C 146.013 153.496,148.097 151.175,148.698 145.743 C 149.007 142.946,146.357 141.196,140.750 140.493 C 137.172 140.044,126.824 140.052,126.545 140.504 M251.123 187.298 L 251.040 202.048 250.080 202.048 L 249.120 202.048 248.960 187.183 L 248.800 172.318 250.003 172.433 L 251.206 172.548 251.123 187.298 M158.764 173.135 C 160.828 173.830,161.676 174.292,163.600 175.771 C 164.960 176.817,165.058 177.119,164.187 177.586 C 163.686 177.854,163.318 177.699,162.187 176.748 C 152.901 168.940,138.870 177.198,140.808 189.330 C 143.224 204.455,163.679 204.222,166.228 189.040 L 166.429 187.840 160.068 187.840 L 153.707 187.840 153.760 187.120 L 153.813 186.400 160.906 186.314 L 168.000 186.228 168.000 187.767 C 168.000 201.450,150.310 207.443,142.032 196.563 C 133.037 184.742,144.708 168.400,158.764 173.135 M174.080 187.360 L 174.080 201.920 173.120 201.920 L 172.160 201.920 172.160 187.360 L 172.160 172.800 173.120 172.800 L 174.080 172.800 174.080 187.360 M203.277 183.280 C 203.393 192.228,203.494 193.980,203.970 195.262 C 207.319 204.283,219.687 201.715,219.677 192.000 C 219.670 184.461,211.746 180.664,206.103 185.494 L 204.756 186.647 204.858 185.406 C 205.090 182.581,211.553 180.931,215.520 182.684 C 220.674 184.962,222.960 191.619,220.387 196.858 C 216.847 204.066,206.160 203.866,202.768 196.528 C 201.733 194.290,201.504 172.800,202.515 172.800 C 203.121 172.800,203.145 173.138,203.277 183.280 M192.086 182.800 C 198.115 185.345,199.745 194.343,195.041 199.115 C 188.637 205.610,178.404 201.234,178.402 192.000 C 178.401 184.434,185.173 179.881,192.086 182.800 M238.622 183.072 C 242.997 185.170,244.303 188.676,244.092 197.760 C 244.004 201.569,243.967 201.765,243.315 201.858 C 242.642 201.954,242.628 201.860,242.481 196.098 C 242.303 189.139,241.958 187.848,239.668 185.558 C 234.594 180.484,226.134 184.399,226.092 191.840 C 226.050 199.442,233.809 203.370,239.680 198.720 L 241.007 197.669 240.904 198.744 C 240.615 201.741,233.861 203.210,229.839 201.152 C 218.101 195.147,226.736 177.370,238.622 183.072 M184.960 183.869 C 180.706 185.706,178.593 191.435,180.604 195.680 C 184.553 204.020,196.143 201.256,196.157 191.971 C 196.166 185.921,190.201 181.605,184.960 183.869 M251.195 207.459 C 251.188 211.040,249.711 212.918,247.760 211.828 C 244.944 210.255,246.292 206.588,249.468 207.184 L 250.560 207.389 250.560 206.076 C 250.560 205.282,250.687 204.840,250.880 204.960 C 251.056 205.069,251.198 206.193,251.195 207.459 M239.360 207.776 C 239.360 210.753,239.598 211.200,241.184 211.200 C 241.765 211.200,242.240 211.344,242.240 211.520 C 242.240 212.046,239.936 211.882,239.305 211.310 C 238.648 210.716,238.408 205.120,239.040 205.120 C 239.228 205.120,239.360 206.219,239.360 207.776 M243.840 206.400 C 243.840 206.869,244.053 207.040,244.640 207.040 C 245.138 207.040,245.440 207.221,245.440 207.520 C 245.440 207.821,245.136 208.000,244.622 208.000 C 243.450 208.000,243.542 210.975,244.720 211.142 C 245.116 211.198,245.440 211.453,245.440 211.708 C 245.440 212.137,244.272 212.084,243.440 211.617 C 243.071 211.410,243.148 205.760,243.520 205.760 C 243.696 205.760,243.840 206.048,243.840 206.400 M247.526 208.200 C 246.725 209.001,247.018 210.598,248.073 211.188 C 249.054 211.736,249.947 211.159,250.383 209.696 C 250.819 208.235,248.634 207.091,247.526 208.200 " stroke="none" fill="#000000" fill-rule="evenodd"></path></g></svg>